<?xml version="1.0" standalone="no"?>
<!DOCTYPE svg PUBLIC "-//W3C//DTD SVG 20010904//EN"
 "http://www.w3.org/TR/2001/REC-SVG-20010904/DTD/svg10.dtd">
<svg version="1.0" xmlns="http://www.w3.org/2000/svg"
 width="512.000000pt" height="512.000000pt" viewBox="0 0 512.000000 512.000000"
 preserveAspectRatio="xMidYMid meet">
<metadata>
Created by potrace 1.14, written by Peter Selinger 2001-2017
</metadata>
<g transform="translate(0.000000,512.000000) scale(0.100000,-0.100000)"
fill="#000000" stroke="none">
<path d="M2626 4203 c-2 -3 -23 -6 -45 -9 -121 -11 -267 -57 -408 -128 -39
-20 -82 -40 -97 -46 -15 -5 -53 -27 -84 -49 -31 -21 -76 -48 -98 -59 -23 -12
-82 -61 -131 -109 -90 -89 -132 -140 -138 -171 -7 -34 -23 -68 -39 -81 -9 -7
-16 -20 -16 -28 0 -8 -18 -38 -40 -65 -22 -28 -40 -57 -40 -64 0 -7 -14 -48
-30 -90 -17 -41 -32 -94 -35 -117 -7 -63 -21 -104 -54 -155 -16 -26 -34 -67
-40 -92 -16 -72 -14 -459 3 -506 7 -22 17 -64 20 -94 10 -79 25 -120 57 -160
16 -19 29 -46 29 -60 0 -14 5 -31 11 -37 8 -8 8 -17 1 -30 -6 -11 -13 -37 -15
-59 -2 -21 -8 -47 -12 -58 -5 -11 -3 -26 3 -37 17 -27 26 -553 10 -566 -7 -6
-38 -13 -70 -15 -70 -6 -162 -51 -257 -128 -38 -30 -104 -82 -146 -115 -43
-33 -90 -78 -104 -99 -24 -37 -26 -45 -22 -135 3 -53 5 -134 5 -181 l1 -85
-45 -28 c-41 -26 -290 -162 -520 -284 -104 -55 -160 -89 -232 -143 -43 -32
-47 -39 -48 -77 l0 -43 2533 0 2532 0 -163 163 c-172 171 -316 287 -442 354
-41 22 -145 69 -230 103 -85 34 -202 83 -260 107 -274 116 -342 144 -430 176
-185 68 -190 71 -191 114 0 21 -2 72 -3 113 -4 92 12 422 24 507 5 40 20 82
42 120 19 32 44 83 57 115 17 42 30 59 52 68 37 16 52 43 44 81 -4 19 -3 29 5
29 6 0 8 4 5 10 -3 6 2 10 12 10 10 0 33 9 51 20 42 26 46 25 58 -7 l9 -28 22
22 22 22 7 -34 c10 -54 24 -41 24 20 0 30 5 55 10 55 6 0 10 9 10 19 0 20 25
35 41 25 5 -3 27 9 49 28 45 37 88 71 143 113 l38 28 -11 -29 c-6 -16 -17 -36
-24 -44 -22 -26 -146 -292 -134 -288 6 2 41 63 78 135 37 72 94 166 126 209
64 86 115 162 159 237 20 36 29 66 32 115 5 61 2 71 -23 107 -23 34 -28 51
-30 119 -1 43 -7 83 -13 89 -6 6 -11 36 -11 67 0 38 -8 72 -23 106 -13 27 -31
65 -40 85 -8 20 -36 54 -61 75 -29 24 -46 46 -46 60 0 15 -8 23 -27 27 -16 3
-60 34 -99 69 -91 81 -123 108 -129 108 -9 0 8 -36 29 -59 l21 -24 -22 12
c-12 6 -46 11 -75 11 -50 0 -55 2 -73 33 -10 17 -47 62 -81 98 -34 36 -65 74
-68 85 -4 10 -27 35 -52 54 -25 19 -64 51 -87 71 -23 20 -57 44 -75 53 -18 10
-50 32 -70 50 -45 41 -265 157 -347 184 -33 11 -91 23 -130 27 -38 4 -84 8
-102 10 -17 1 -34 1 -37 -2z m1564 -1650 c0 -21 -5 -45 -11 -53 -8 -12 -9 -10
-4 8 4 13 2 29 -4 36 -6 8 -9 21 -5 30 11 29 24 17 24 -21z m-122 -117 c-6
-53 -35 -94 -105 -145 -76 -58 -92 -65 -99 -47 -8 20 27 62 48 58 11 -2 20 8
28 35 7 21 17 44 23 51 11 14 41 17 32 2 -3 -5 -2 -10 2 -10 16 0 33 24 33 46
0 34 10 54 27 54 12 0 15 -9 11 -44z m-148 -111 c0 -8 -2 -15 -4 -15 -2 0 -6
7 -10 15 -3 8 -1 15 4 15 6 0 10 -7 10 -15z m-643 -887 c-3 -7 -5 -2 -5 12 0
14 2 19 5 13 2 -7 2 -19 0 -25z m-117 -193 c0 -17 -2 -17 -10 -5 -5 8 -10 24
-10 35 0 17 2 17 10 5 5 -8 10 -24 10 -35z"/>
</g>
</svg>
